name D:\school\WTK\thesis\model\3dpredictsim\Results\batch_windlass\Pog_s1_tmt_aCst_d00_k1000_WL20_ig24_act_TTC.mot
datacolumns 128
datarows 4
range 1.78368919 1.81936297
endheader
time	pelvis_tilt	pelvis_list	pelvis_rotation	pelvis_tx	pelvis_ty	pelvis_tz	hip_flexion_l	hip_adduction_l	hip_rotation_l	hip_flexion_r	hip_adduction_r	hip_rotation_r	knee_angle_l	knee_angle_r	ankle_angle_l	ankle_angle_r	subtalar_angle_l	subtalar_angle_r	tmt_angle_l	tmt_angle_r	mtp_angle_l	mtp_angle_r	lumbar_extension	lumbar_bending	lumbar_rotation	arm_flex_l	arm_add_l	arm_rot_l	arm_flex_r	arm_add_r	arm_rot_r	elbow_flex_l	elbow_flex_r	pro_sup_l	pro_sup_r	glut_med1_l/activation	glut_med2_l/activation	glut_med3_l/activation	glut_min1_l/activation	glut_min2_l/activation	glut_min3_l/activation	semimem_l/activation	semiten_l/activation	bifemlh_l/activation	bifemsh_l/activation	sar_l/activation	add_long_l/activation	add_brev_l/activation	add_mag1_l/activation	add_mag2_l/activation	add_mag3_l/activation	tfl_l/activation	pect_l/activation	grac_l/activation	glut_max1_l/activation	glut_max2_l/activation	glut_max3_l/activation	iliacus_l/activation	psoas_l/activation	quad_fem_l/activation	gem_l/activation	peri_l/activation	rect_fem_l/activation	vas_med_l/activation	vas_int_l/activation	vas_lat_l/activation	med_gas_l/activation	lat_gas_l/activation	soleus_l/activation	tib_post_l/activation	flex_dig_l/activation	flex_hal_l/activation	tib_ant_l/activation	per_brev_l/activation	per_long_l/activation	per_tert_l/activation	ext_dig_l/activation	ext_hal_l/activation	ercspn_l/activation	intobl_l/activation	extobl_l/activation	glut_med1_r/activation	glut_med2_r/activation	glut_med3_r/activation	glut_min1_r/activation	glut_min2_r/activation	glut_min3_r/activation	semimem_r/activation	semiten_r/activation	bifemlh_r/activation	bifemsh_r/activation	sar_r/activation	add_long_r/activation	add_brev_r/activation	add_mag1_r/activation	add_mag2_r/activation	add_mag3_r/activation	tfl_r/activation	pect_r/activation	grac_r/activation	glut_max1_r/activation	glut_max2_r/activation	glut_max3_r/activation	iliacus_r/activation	psoas_r/activation	quad_fem_r/activation	gem_r/activation	peri_r/activation	rect_fem_r/activation	vas_med_r/activation	vas_int_r/activation	vas_lat_r/activation	med_gas_r/activation	lat_gas_r/activation	soleus_r/activation	tib_post_r/activation	flex_dig_r/activation	flex_hal_r/activation	tib_ant_r/activation	per_brev_r/activation	per_long_r/activation	per_tert_r/activation	ext_dig_r/activation	ext_hal_r/activation	ercspn_r/activation	intobl_r/activation	extobl_r/activation	
          1.78368919	         -2.92913820	          0.42004967	         -8.94472063	          2.22961149	          0.85531172	          0.00164793	         33.53289056	         -1.33081307	         -1.91807060	        -16.30922868	         -2.68212873	          8.30917975	        -21.80223422	        -16.57318552	         -3.10688385	        -10.16900267	          8.97125690	         18.36280865	         -0.14151840	         -7.41635313	          0.69676067	         35.63274684	          1.20143830	          2.63693853	          2.92091710	        -17.06348741	        -13.73021607	          6.81463030	          2.04216749	        -13.48038069	         14.75417556	         23.44580611	         44.50635952	         86.51662706	         86.51662706	          0.05002773	          0.05042679	          0.05984259	          0.05610248	          0.05023854	          0.05006001	          0.12561356	          0.07179444	          0.13296059	          0.07178760	          0.05640705	          0.07659932	          0.05219987	          0.11002206	          0.08180500	          0.08206096	          0.05011486	          0.05010387	          0.09939178	          0.05899753	          0.05902871	          0.08408572	          0.08265787	          0.08281025	          0.14912647	          0.06382409	          0.05043777	          0.05000311	          0.05000300	          0.05000347	          0.05000295	          0.07178609	          0.07179032	          0.07178293	          0.05653322	          0.05988330	          0.05993348	          0.32770343	          0.16278642	          0.10306244	          0.11267085	          0.42942865	          0.13501396	          0.05000156	          0.14132448	          0.14795546	          0.15995671	          0.07522803	          0.05236746	          0.20066883	          0.13542779	          0.08475506	          0.05005755	          0.05000532	          0.05000650	          0.05000234	          0.09417655	          0.09879693	          0.05639465	          0.05011582	          0.05022048	          0.06009788	          0.17709677	          0.05005416	          0.05001049	          0.05010505	          0.05009918	          0.05016355	          0.32845197	          0.43946597	          0.05000520	          0.05003474	          0.05014209	          0.25061775	          0.06003959	          0.06004696	          0.05993811	          0.15420260	          0.21712796	          0.05000081	          0.15399768	          0.16240617	          0.17085969	          0.20948082	          0.54562389	          0.40099149	          0.47008916	          0.41529282	          0.05000619	          0.05000058	          0.05756085	          0.05000339	
          1.79558045	         -2.92097749	          0.38872583	         -9.11315558	          2.24883098	          0.85406365	          0.00128284	         33.11083591	         -1.12254866	         -1.71495238	        -16.35517369	         -2.91050076	          8.06085569	        -21.92165510	        -17.92740614	         -3.31769954	        -13.07533537	          8.52522059	         18.67890716	         -0.17714147	         -7.79820872	          0.81206319	         36.40545293	          1.42973855	          2.41978630	          3.00836547	        -18.39651947	        -13.70701985	          7.05955949	          1.70911142	        -13.52412657	         15.14606957	         23.22632881	         45.41057433	         86.51662706	         86.51662706	          0.11707359	          0.05000815	          0.05000985	          0.05002420	          0.05002103	          0.05002988	          0.10483747	          0.05992063	          0.11096987	          0.05991432	          0.05990274	          0.08600509	          0.10304394	          0.10713335	          0.13398166	          0.13905588	          0.05000819	          0.06003603	          0.08295615	          0.05001134	          0.05003066	          0.16137146	          0.06898789	          0.06911469	          0.12448767	          0.05335923	          0.15093287	          0.05000590	          0.17711788	          0.16811873	          0.15316582	          0.05991232	          0.05991594	          0.05990964	          0.05000317	          0.05000871	          0.05002964	          0.54232519	          0.13586099	          0.08601548	          0.50503550	          0.56572617	          0.44368126	          0.05000115	          0.11794874	          0.12348288	          0.13350223	          0.06278786	          0.05000665	          0.16748037	          0.11302990	          0.07074289	          0.05159613	          0.05997279	          0.06005261	          0.05992817	          0.07863315	          0.16395381	          0.22618812	          0.07478108	          0.05019498	          0.05017874	          0.14780591	          0.09383892	          0.07765554	          0.05011913	          0.05007864	          0.05006275	          0.27412581	          0.36677824	          0.05434029	          0.05006791	          0.05001097	          0.20916426	          0.05010944	          0.05011556	          0.05002457	          0.12869663	          0.18121390	          0.05000037	          0.12852573	          0.13554422	          0.14259914	          0.40313718	          0.52321936	          0.37103732	          0.70441350	          0.57064382	          0.21637449	          0.05000064	          0.05625876	          0.06334246	
          1.80747171	         -2.90599801	          0.37246129	         -9.24497468	          2.26814505	          0.85224498	          0.00091758	         32.60657003	         -0.84670042	         -1.42684594	        -16.16813228	         -3.10588028	          7.81953550	        -22.70280964	        -19.80740703	         -3.31312516	        -15.44937849	          8.02726433	         18.92636108	         -0.18489776	         -7.74236853	          0.93971221	         35.42391750	          1.65478024	          2.16667273	          3.07926753	        -19.66532134	        -13.70456308	          7.42458496	          1.33981837	        -13.59270343	         15.50221267	         22.90170909	         46.30570469	         86.51662706	         86.51662706	          0.21357859	          0.18348217	          0.22147293	          0.05002054	          0.05003957	          0.05989594	          0.08749707	          0.05001149	          0.09261519	          0.05000504	          0.05000505	          0.07178376	          0.08600351	          0.13478553	          0.19252068	          0.14370569	          0.05003977	          0.05013059	          0.06924029	          0.15952924	          0.14734934	          0.17411821	          0.05757821	          0.05768547	          0.10391328	          0.05001145	          0.12597435	          0.05991029	          0.32229260	          0.28641051	          0.25578164	          0.05000255	          0.05000569	          0.05000027	          0.13511520	          0.05002607	          0.05000500	          0.48991294	          0.11338915	          0.07178827	          0.42150288	          0.47215320	          0.37029637	          0.05000104	          0.09843940	          0.10305817	          0.11142243	          0.05240847	          0.05159062	          0.13978179	          0.09433680	          0.05905782	          0.08445182	          0.05005628	          0.05012438	          0.05001831	          0.06564152	          0.22527006	          0.28383831	          0.16337644	          0.06007485	          0.05018141	          0.12336026	          0.07834844	          0.06481767	          0.05013893	          0.05010338	          0.05010343	          0.22878530	          0.30618144	          0.05990739	          0.05989561	          0.05989412	          0.17456762	          0.06783798	          0.08600263	          0.07908956	          0.10740956	          0.15124038	          0.05990309	          0.10726707	          0.11312571	          0.11901329	          0.45477750	          0.47296521	          0.34407256	          0.58814888	          0.67428065	          0.18058588	          0.08174151	          0.05000469	          0.05286616	
          1.81936297	         -2.88644553	          0.35548268	         -9.33313827	          2.28741167	          0.85015860	          0.00056419	         31.90720799	         -0.53116708	         -1.07581647	        -15.79474569	         -3.27067526	          7.60510026	        -23.82806473	        -22.08374203	         -2.90982859	        -17.34128403	          7.51157940	         19.14305101	         -0.13385141	         -7.22711235	          0.73743681	         32.54468861	          1.87257459	          1.89988435	          3.13372943	        -20.81630981	        -13.71184981	          7.91673886	          0.95982028	        -13.67318655	         15.83049190	         22.42692150	         47.13256607	         86.51662706	         86.51662706	          0.26211760	          0.41179065	          0.56573258	          0.13558757	          0.14161212	          0.42645069	          0.07302498	          0.06008062	          0.07729673	          0.05992150	          0.05990871	          0.05991348	          0.07178032	          0.11249379	          0.16068144	          0.15094984	          0.05000278	          0.05990972	          0.06045250	          0.30243159	          0.24115035	          0.20131102	          0.05990525	          0.05001396	          0.08672836	          0.17742834	          0.30980831	          0.05000126	          0.27142849	          0.33758580	          0.31427226	          0.05000068	          0.05000149	          0.05000023	          0.17810429	          0.14310813	          0.05016995	          0.49677219	          0.09463440	          0.05991439	          0.35178534	          0.42610408	          0.38498101	          0.05572633	          0.08215706	          0.08601184	          0.16800988	          0.05000362	          0.05000147	          0.11666629	          0.07873621	          0.05001034	          0.12270582	          0.05000443	          0.05000623	          0.05000410	          0.05480270	          0.18801214	          0.26654848	          0.13635918	          0.05024015	          0.05003314	          0.10295889	          0.06540319	          0.05410279	          0.05003395	          0.05002113	          0.05001123	          0.19094375	          0.25555369	          0.05000439	          0.05001083	          0.05000255	          0.14569335	          0.07177984	          0.07178739	          0.06601483	          0.08964356	          0.12622485	          0.05000079	          0.08952488	          0.09441575	          0.09932910	          0.38277237	          0.39474097	          0.29109367	          0.50509931	          0.81831051	          0.45150418	          0.12286807	          0.05000070	          0.05000255	
